<svg width="118" height="83" viewBox="0 0 118 83" fill="none" xmlns="http://www.w3.org/2000/svg">
<path d="M34.792 82.4285C34.4571 82.4285 34.1352 82.3415 33.8357 82.1677L0.907311 62.4695C0.0251052 61.9479 -0.26149 60.792 0.260135 59.9098C0.794618 59.0275 1.93767 58.7409 2.81987 59.2626L34.8275 78.4167L69.308 59.2395C70.2031 58.7308 71.3461 59.0656 71.8419 59.9607C72.3378 60.8558 72.0158 61.9989 71.1207 62.4947L35.7097 82.1928C35.4231 82.3538 35.114 82.4279 34.8017 82.4279L34.792 82.4285Z" fill="#D97925"/>
<path d="M22.7109 41.3623V40.4837C22.7109 39.7166 22.8064 38.9952 22.9974 38.3196C23.19 37.6424 23.5173 37.0526 23.9795 36.5503C24.4417 36.0496 25.0668 35.6524 25.8547 35.3588C26.6443 35.0667 27.6369 34.9207 28.8324 34.9207H29.4414C30.2069 34.9207 30.9508 34.968 31.6729 35.0627C32.3951 35.159 33.1052 35.297 33.8033 35.4767V38.2329C33.4085 38.1206 33.0113 38.0251 32.6117 37.9465C32.2105 37.8679 31.8157 37.8029 31.4274 37.7515C31.039 37.7018 30.6667 37.6657 30.3104 37.6432C29.9558 37.6207 29.638 37.6095 29.3572 37.6095C28.4778 37.6095 27.7981 37.6905 27.3183 37.8526C26.8385 38.0163 26.4894 38.245 26.2712 38.5387C26.0513 38.8323 25.9213 39.1814 25.8812 39.5858C25.8411 39.9918 25.821 40.4371 25.821 40.9218C25.821 41.408 25.8411 41.8534 25.8812 42.2578C25.9213 42.6638 26.0513 43.016 26.2712 43.3145C26.4894 43.6146 26.8385 43.8465 27.3183 44.0102C27.7981 44.1723 28.4778 44.2533 29.3572 44.2533C29.638 44.2533 29.9558 44.2421 30.3104 44.2196C30.6667 44.1972 31.039 44.1611 31.4274 44.1113C31.8157 44.06 32.2105 43.9918 32.6117 43.9067C33.0113 43.8232 33.4085 43.7246 33.8033 43.6106V46.3861C33.1052 46.5546 32.3951 46.687 31.6729 46.7833C30.9508 46.878 30.2069 46.9253 29.4414 46.9253H28.8324C27.6369 46.9253 26.6443 46.7793 25.8547 46.4872C25.0668 46.1935 24.4417 45.7955 23.9795 45.2932C23.5173 44.7925 23.19 44.2036 22.9974 43.5264C22.8064 42.8507 22.7109 42.1294 22.7109 41.3623Z" fill="#002044"/>
<path d="M40.2823 46.5883H37.543V45.9119L42.5812 35.2576H45.6263L50.6646 45.9119V46.5883H47.9252L46.9455 44.3905H41.2452L40.2823 46.5883ZM42.379 41.8533H45.8285L44.1026 37.9802L42.379 41.8533Z" fill="#002044"/>
<path d="M66.2887 46.5883H63.3472L61.0796 43.0377C60.4714 43.0377 59.8856 43.0321 59.3223 43.0209C58.7591 43.0096 58.2062 42.9583 57.6638 42.8668V46.5883H54.6211V35.2577C55.5904 35.1453 56.6078 35.0611 57.6734 35.0049C58.739 34.9487 59.7845 34.9207 60.81 34.9207H61.2842C62.231 34.9207 63.0142 35.0193 63.6336 35.2167C64.2547 35.4125 64.7506 35.6797 65.1213 36.0183C65.4936 36.3569 65.7535 36.7517 65.9012 37.2027C66.0472 37.6536 66.1202 38.1326 66.1202 38.6398V39.3162C66.1202 40.0271 65.979 40.6722 65.6966 41.2516C65.4157 41.8325 64.9142 42.281 64.1921 42.5972L66.2887 45.9119V46.5883ZM60.8437 37.6263C60.4489 37.6263 59.961 37.6376 59.3801 37.66C58.8008 37.6825 58.2287 37.7218 57.6638 37.778V40.178C58.195 40.247 58.6973 40.2895 59.1707 40.3055C59.6441 40.3232 60.0268 40.332 60.3189 40.332C60.9961 40.332 61.5209 40.3007 61.8932 40.2381C62.2639 40.1756 62.5367 40.0825 62.7117 39.9589C62.8866 39.8353 62.9909 39.6773 63.0246 39.4847C63.0583 39.2937 63.0752 39.0626 63.0752 38.7914C63.0752 38.6454 63.0639 38.5018 63.0415 38.3605C63.019 38.2193 62.9379 38.0925 62.7983 37.9802C62.6571 37.8679 62.434 37.7804 62.1291 37.7178C61.8242 37.6568 61.3957 37.6263 60.8437 37.6263Z" fill="#002044"/>
<path d="M79.5465 40.9049H82.5892V46.3861C81.7884 46.5546 80.9659 46.687 80.1218 46.7833C79.2761 46.878 78.4191 46.9253 77.5509 46.9253H76.9419C75.6452 46.9253 74.5716 46.7793 73.7211 46.4872C72.8689 46.1935 72.1893 45.7955 71.6822 45.2932C71.1751 44.7925 70.8204 44.2036 70.6182 43.5264C70.4144 42.8507 70.3125 42.1294 70.3125 41.3623V40.4837C70.3125 39.7166 70.4144 38.9952 70.6182 38.3196C70.8204 37.6424 71.1751 37.0526 71.6822 36.5503C72.1893 36.0496 72.8689 35.6524 73.7211 35.3588C74.5716 35.0667 75.6452 34.9207 76.9419 34.9207H77.5509C78.363 34.9207 79.1629 34.968 79.9509 35.0627C80.7405 35.159 81.5075 35.297 82.2522 35.4767V38.2329C81.4177 38.0083 80.5695 37.8478 79.7078 37.7515C78.8444 37.6568 78.0974 37.6095 77.4667 37.6095C76.4508 37.6095 75.6701 37.6905 75.1245 37.8526C74.5772 38.0163 74.1768 38.245 73.9233 38.5387C73.6697 38.8323 73.5229 39.1814 73.4828 39.5858C73.4443 39.9918 73.425 40.4371 73.425 40.9218C73.425 41.408 73.4443 41.8534 73.4828 42.2578C73.5229 42.6638 73.6697 43.016 73.9233 43.3145C74.1768 43.6146 74.5772 43.8465 75.1245 44.0102C75.6701 44.1723 76.4508 44.2533 77.4667 44.2533C78.0749 44.2533 78.7682 44.2196 79.5465 44.1522V40.9049Z" fill="#002044"/>
<path d="M96.1852 35.2576H99.2303V41.8702C99.2303 42.5683 99.1396 43.2222 98.9582 43.832C98.7785 44.4403 98.4688 44.9755 98.0291 45.4376C97.5894 45.8998 96.9972 46.2633 96.2526 46.5281C95.5095 46.7929 94.5739 46.9253 93.4458 46.9253H92.8368C91.7102 46.9253 90.7746 46.7929 90.03 46.5281C89.287 46.2633 88.6956 45.8998 88.2559 45.4376C87.8162 44.9755 87.5056 44.4403 87.3243 43.832C87.1446 43.2222 87.0547 42.5683 87.0547 41.8702V35.2576H90.0974V41.4297C90.0974 41.802 90.1142 42.1542 90.1479 42.4864C90.1832 42.8202 90.2932 43.1163 90.4777 43.3747C90.6639 43.6347 90.9632 43.8401 91.3756 43.9909C91.7864 44.1434 92.3754 44.2196 93.1425 44.2196C93.8983 44.2196 94.4841 44.1434 94.8997 43.9909C95.317 43.8401 95.6187 43.6347 95.8048 43.3747C95.991 43.1163 96.1009 42.8202 96.1346 42.4864C96.1683 42.1542 96.1852 41.802 96.1852 41.4297V35.2576Z" fill="#002044"/>
<path d="M111.475 44.2702H109.92L106.74 39.8241V46.5883H103.695V35.2576H106.74L110.698 41.059L114.655 35.2576H117.698V46.5883H114.655V39.8241L111.475 44.2702Z" fill="#002044"/>
<path d="M37.3877 0.176575C37.9093 -0.0713345 38.5176 -0.0580074 39.0264 0.215637L74.1152 18.3621C74.7494 18.6841 75.133 19.3443 75.1201 20.0526C75.107 20.7607 74.6851 21.4045 74.0381 21.7039L62.376 27.1443H53.5742L69.0381 19.9276L38.1348 3.94025L6.08887 18.8963L25.6865 29.035C24.4183 29.6949 23.2642 30.5093 22.2568 31.449L1.00781 20.4617C0.373784 20.1367 -0.0125355 19.4793 0 18.7713C0.0128572 18.063 0.434963 17.4184 1.08203 17.119L37.3877 0.176575Z" fill="#D97925"/>
<path d="M0.263672 40.2087C0.785237 39.3265 1.94106 39.0397 2.82324 39.5612L34.8311 58.7155L41.6787 54.9069H49.3486L35.7129 62.4919C35.4266 62.6526 35.1177 62.7262 34.8057 62.7263L34.7959 62.7302C34.461 62.7302 34.1383 62.6433 33.8389 62.4694L0.911133 42.7682C0.0290104 42.2467 -0.257751 41.0909 0.263672 40.2087Z" fill="#D97925"/>
</svg>
